<svg width="118" height="44" viewBox="0 0 118 44" fill="none" xmlns="http://www.w3.org/2000/svg">
<path d="M0 16C0 8.45753 0 4.68629 2.34315 2.34315C4.68629 0 8.45753 0 16 0H102C109.542 0 113.314 0 115.657 2.34315C118 4.68629 118 8.45753 118 16V28C118 35.5425 118 39.3137 115.657 41.6569C113.314 44 109.542 44 102 44H16C8.45753 44 4.68629 44 2.34315 41.6569C0 39.3137 0 35.5425 0 28V16Z" fill="#AD004B"/>
<rect x="8" y="10" width="32" height="24" rx="4" fill="#FFDD44"/>
<path d="M19 29C18.1667 29 17.4583 28.7083 16.875 28.125C16.2917 27.5417 16 26.8333 16 26H15C14.7167 26 14.4792 25.9042 14.2875 25.7125C14.0958 25.5208 14 25.2833 14 25V23C14 21.9 14.3917 20.9583 15.175 20.175C15.9583 19.3917 16.9 19 18 19H20C20.55 19 21.0208 19.1958 21.4125 19.5875C21.8042 19.9792 22 20.45 22 21V24H25.5L29 19.65V17H27C26.7167 17 26.4792 16.9042 26.2875 16.7125C26.0958 16.5208 26 16.2833 26 16C26 15.7167 26.0958 15.4792 26.2875 15.2875C26.4792 15.0958 26.7167 15 27 15H29C29.55 15 30.0208 15.1958 30.4125 15.5875C30.8042 15.9792 31 16.45 31 17V19.65C31 19.8833 30.9625 20.1042 30.8875 20.3125C30.8125 20.5208 30.7083 20.7167 30.575 20.9L27.1 25.25C26.9167 25.4833 26.6833 25.6667 26.4 25.8C26.1167 25.9333 25.825 26 25.525 26H22C22 26.8333 21.7083 27.5417 21.125 28.125C20.5417 28.7083 19.8333 29 19 29ZM19 27C19.2833 27 19.5208 26.9042 19.7125 26.7125C19.9042 26.5208 20 26.2833 20 26H18C18 26.2833 18.0958 26.5208 18.2875 26.7125C18.4792 26.9042 18.7167 27 19 27ZM21 18H18C17.7167 18 17.4792 17.9042 17.2875 17.7125C17.0958 17.5208 17 17.2833 17 17C17 16.7167 17.0958 16.4792 17.2875 16.2875C17.4792 16.0958 17.7167 16 18 16H21C21.2833 16 21.5208 16.0958 21.7125 16.2875C21.9042 16.4792 22 16.7167 22 17C22 17.2833 21.9042 17.5208 21.7125 17.7125C21.5208 17.9042 21.2833 18 21 18ZM31 29C30.1667 29 29.4583 28.7083 28.875 28.125C28.2917 27.5417 28 26.8333 28 26C28 25.1667 28.2917 24.4583 28.875 23.875C29.4583 23.2917 30.1667 23 31 23C31.8333 23 32.5417 23.2917 33.125 23.875C33.7083 24.4583 34 25.1667 34 26C34 26.8333 33.7083 27.5417 33.125 28.125C32.5417 28.7083 31.8333 29 31 29ZM31 27C31.2833 27 31.5208 26.9042 31.7125 26.7125C31.9042 26.5208 32 26.2833 32 26C32 25.7167 31.9042 25.4792 31.7125 25.2875C31.5208 25.0958 31.2833 25 31 25C30.7167 25 30.4792 25.0958 30.2875 25.2875C30.0958 25.4792 30 25.7167 30 26C30 26.2833 30.0958 26.5208 30.2875 26.7125C30.4792 26.9042 30.7167 27 31 27Z" fill="#AD004B"/>
<path d="M48.2159 17.3636H51.25L53.1648 25.1818H53.3011L57.7955 17.3636H60.8295L58.8977 29H56.5114L57.7727 21.4261H57.6705L53.4205 28.9432H51.7898L50.0398 21.3977H49.9432L48.6705 29H46.2841L48.2159 17.3636ZM60.8793 29L62.3338 20.2727H64.7543L63.2997 29H60.8793ZM63.794 19.1364C63.4342 19.1364 63.1368 19.017 62.902 18.7784C62.6709 18.536 62.5762 18.2481 62.6179 17.9148C62.6596 17.5739 62.8224 17.286 63.1065 17.0511C63.3906 16.8125 63.7126 16.6932 64.0724 16.6932C64.4323 16.6932 64.7259 16.8125 64.9531 17.0511C65.1804 17.286 65.2751 17.5739 65.2372 17.9148C65.1993 18.2481 65.0384 18.536 64.7543 18.7784C64.474 19.017 64.1539 19.1364 63.794 19.1364ZM68.5114 23.9545L67.6705 29H65.2557L66.7102 20.2727H69.0114L68.7614 21.8125H68.858C69.1345 21.3011 69.5246 20.8977 70.0284 20.6023C70.536 20.3068 71.1136 20.1591 71.7614 20.1591C72.3674 20.1591 72.8731 20.2917 73.2784 20.5568C73.6875 20.822 73.9754 21.1989 74.142 21.6875C74.3125 22.1761 74.3409 22.7614 74.2273 23.4432L73.2955 29H70.875L71.733 23.875C71.8201 23.3409 71.7519 22.9242 71.5284 22.625C71.3087 22.322 70.9545 22.1705 70.4659 22.1705C70.1402 22.1705 69.8409 22.2405 69.5682 22.3807C69.2955 22.5208 69.0663 22.7254 68.8807 22.9943C68.6989 23.2595 68.5758 23.5795 68.5114 23.9545ZM81.4077 25.2841L82.2429 20.2727H84.6634L83.2088 29H80.8849L81.1463 27.4148H81.0554C80.7865 27.9261 80.3944 28.3371 79.8793 28.6477C79.3641 28.9583 78.7789 29.1136 78.1236 29.1136C77.5402 29.1136 77.0478 28.9811 76.6463 28.7159C76.2486 28.4508 75.9664 28.0739 75.7997 27.5852C75.633 27.0966 75.6046 26.5114 75.7145 25.8295L76.6463 20.2727H79.0668L78.2145 25.3977C78.1349 25.9129 78.2069 26.3201 78.4304 26.6193C78.6539 26.9186 78.9948 27.0682 79.4531 27.0682C79.7448 27.0682 80.027 27.0019 80.2997 26.8693C80.5762 26.733 80.8149 26.5322 81.0156 26.267C81.2164 26.0019 81.3471 25.6742 81.4077 25.2841ZM91.2415 20.2727L90.9403 22.0909H85.679L85.9858 20.2727H91.2415ZM87.5199 18.1818H89.9403L88.5881 26.3182C88.5502 26.5417 88.5559 26.7159 88.6051 26.8409C88.6544 26.9621 88.7358 27.0473 88.8494 27.0966C88.9669 27.1458 89.107 27.1705 89.2699 27.1705C89.3835 27.1705 89.4991 27.161 89.6165 27.142C89.7339 27.1193 89.8229 27.1023 89.8835 27.0909L89.9744 28.892C89.8381 28.9337 89.6544 28.9792 89.4233 29.0284C89.196 29.0777 88.9271 29.108 88.6165 29.1193C88.0256 29.142 87.5256 29.0644 87.1165 28.8864C86.7074 28.7045 86.4138 28.4261 86.2358 28.0511C86.0578 27.6761 86.0199 27.2045 86.1222 26.6364L87.5199 18.1818ZM95.2244 29.1705C94.3305 29.1705 93.59 28.9886 93.0028 28.625C92.4157 28.2576 92.0028 27.7386 91.7642 27.0682C91.5294 26.3939 91.4896 25.5966 91.6449 24.6761C91.7964 23.7784 92.1013 22.9905 92.5597 22.3125C93.0218 21.6345 93.6013 21.1061 94.2983 20.7273C94.9953 20.3485 95.7718 20.1591 96.6278 20.1591C97.2036 20.1591 97.7244 20.2519 98.1903 20.4375C98.66 20.6193 99.0502 20.8958 99.3608 21.267C99.6714 21.6345 99.8835 22.0947 99.9972 22.6477C100.115 23.2008 100.113 23.8485 99.9915 24.5909L99.8835 25.2557H92.5199L92.7528 23.7557H97.8438C97.9006 23.4072 97.8778 23.0985 97.7756 22.8295C97.6733 22.5606 97.5028 22.3504 97.2642 22.1989C97.0256 22.0436 96.732 21.9659 96.3835 21.9659C96.0275 21.9659 95.6941 22.053 95.3835 22.2273C95.0729 22.4015 94.8116 22.6307 94.5994 22.9148C94.3911 23.1951 94.2566 23.5 94.196 23.8295L93.929 25.3182C93.8532 25.7765 93.8684 26.1572 93.9744 26.4602C94.0843 26.7633 94.2737 26.9905 94.5426 27.142C94.8116 27.2898 95.1525 27.3636 95.5653 27.3636C95.8343 27.3636 96.0862 27.3258 96.321 27.25C96.5597 27.1742 96.7718 27.0625 96.9574 26.9148C97.143 26.7633 97.2945 26.5758 97.4119 26.3523L99.6222 26.5C99.4176 27.0379 99.107 27.5076 98.6903 27.9091C98.2737 28.3068 97.7718 28.6174 97.1847 28.8409C96.6013 29.0606 95.9479 29.1705 95.2244 29.1705ZM109.138 22.7614L106.939 22.8977C106.928 22.7045 106.875 22.5322 106.78 22.3807C106.689 22.2254 106.554 22.1023 106.376 22.0114C106.202 21.9205 105.982 21.875 105.717 21.875C105.32 21.875 104.965 21.9659 104.655 22.1477C104.344 22.3295 104.168 22.5625 104.126 22.8466C104.092 23.0284 104.14 23.1818 104.268 23.3068C104.397 23.4318 104.657 23.5379 105.047 23.625L106.581 23.9432C107.399 24.1174 107.99 24.4072 108.354 24.8125C108.721 25.2178 108.852 25.7481 108.746 26.4034C108.651 26.9602 108.407 27.447 108.013 27.8636C107.619 28.2765 107.119 28.5985 106.513 28.8295C105.907 29.0568 105.234 29.1705 104.496 29.1705C103.31 29.1705 102.409 28.928 101.791 28.4432C101.174 27.9583 100.876 27.3011 100.899 26.4716L103.263 26.3466C103.282 26.7027 103.407 26.9716 103.638 27.1534C103.869 27.3314 104.185 27.4223 104.587 27.4261C105.037 27.4337 105.42 27.3409 105.734 27.1477C106.053 26.9508 106.232 26.7121 106.274 26.4318C106.304 26.2348 106.248 26.0758 106.104 25.9545C105.964 25.8333 105.706 25.733 105.331 25.6534L103.876 25.3523C103.051 25.1818 102.458 24.8769 102.098 24.4375C101.738 23.9981 101.615 23.4394 101.729 22.7614C101.82 22.2197 102.045 21.7557 102.405 21.3693C102.768 20.9792 103.236 20.6799 103.808 20.4716C104.384 20.2633 105.034 20.1591 105.757 20.1591C106.89 20.1591 107.742 20.392 108.314 20.858C108.89 21.3239 109.164 21.9583 109.138 22.7614Z" fill="white"/>
</svg>
